# AST/ASF file generated using VICON BodyLanguage
# -----------------------------------------------
:version 1.10
:name VICON
:units
  mass 1.0
  length 0.45
  angle deg
:documentation
   .ast/.asf automatically generated from VICON data using
   VICON BodyBuilder and BodyLanguage model FoxedUp or BRILLIANT.MOD
:root
   order TX TY TZ RX RY RZ
   axis XYZ
   position 0 0 0  
   orientation 0 0 0 
:bonedata
  begin
     id 1 
     name lhipjoint
     direction 0.576517 -0.752066 0.319413 
     length 2.45433 
     axis 0 0 0  XYZ
  end
  begin
     id 2 
     name lfemur
     direction 0.34202 -0.939693 0  
     length 7.54459  
     axis 0 0 20  XYZ
    dof rx ry rz
    limits (-160.0 20.0)
           (-70.0 70.0)
           (-60.0 70.0)
  end
  begin
     id 3 
     name ltibia
     direction 0.34202 -0.939693 0   
     length 7.73986   
     axis 0 0 20   XYZ
    dof rx
    limits (-10.0 170.0)
  end
  begin
     id 4 
     name lfoot
     direction 0.090693 -0.249177 0.964202   
     length 2.28437   
     axis -90 7.62852e-016 20   XYZ
    dof rx rz
    limits (-45.0 90.0)
           (-70.0 20.0)
  end
  begin
     id 5 
     name ltoes
     direction 1.5356e-011 -4.21928e-011 1   
     length 1.14243   
     axis -90 7.62852e-016 20   XYZ
    dof rx
    limits (-90.0 20.0)
  end
  begin
     id 6 
     name rhipjoint
     direction -0.573937 -0.753736 0.320122   
     length 2.44889  
     axis 0 0 0  XYZ 
  end
  begin
     id 7 
     name rfemur
     direction -0.34202 -0.939693 0   
     length 7.50166   
     axis 0 0 -20   XYZ
    dof rx ry rz
    limits (-160.0 20.0)
           (-70.0 70.0)
           (-70.0 60.0)
  end
  begin
     id 8 
     name rtibia
     direction -0.34202 -0.939693 0   
     length 7.54266   
     axis 0 0 -20   XYZ
    dof rx
    limits (-10.0 170.0)
 end
 begin
     id 9 
     name rfoot
     direction -0.114017 -0.31326 0.942798   
     length 2.34212  
     axis -90 -7.62852e-016 -20   XYZ
    dof rx rz
    limits (-45.0 90.0)
           (-20.0 70.0)
  end
  begin
     id 10 
     name rtoes
     direction -1.53557e-011 -4.21867e-011 1   
     length 1.16246   
     axis -90 -7.62852e-016 -20   XYZ
    dof rx
    limits (-90.0 20.0)
  end
  begin
     id 11 
     name lowerback
     direction -0.0228371 0.999155 -0.034167   
     length 2.0537   
     axis 0 0 0   XYZ
    dof rx ry rz
    limits (-20.0 45.0)
           (-30.0 30.0)
           (-30.0 30.0)
  end
  begin
     id 12 
     name upperback
     direction 0.0198981 0.999794 0.00389455   
     length 2.05302   
     axis 0 0 0   XYZ
    dof rx ry rz
    limits (-20.0 45.0)
           (-30.0 30.0)
           (-30.0 30.0)
  end
  begin
     id 13 
     name thorax
     direction 0.0304566 0.99935 0.0192987   
     length 2.05315   
     axis 0 0 0   XYZ
    dof rx ry rz
    limits (-20.0 45.0)
           (-30.0 30.0)
           (-30.0 30.0)
  end
  begin
     id 14 
     name lowerneck
     direction -0.0196762 0.99417 0.106017   
     length 1.82056   
     axis 0 0 0   XYZ
    dof rx ry rz
    limits (-20.0 45.0)
           (-30.0 30.0)
           (-30.0 30.0)
  end
  begin
     id 15 
     name upperneck
     direction 0.00517787 0.9802 -0.197944   
     length 1.83835   
     axis 0 0 0   XYZ
    dof rx ry rz
    limits (-20.0 45.0)
           (-30.0 30.0)
           (-30.0 30.0)
  end
  begin
     id 16
     name head
     direction 0.00211419 0.996945 -0.078081  
     length 1.85629  
     axis 0 0 0   XYZ
    dof rx ry rz
    limits (-20.0 45.0)
           (-30.0 30.0)
           (-30.0 30.0)
  end
  begin
     id 17 
     name lclavicle
     direction 0.930001 0.365811 -0.0357824  
     length 3.81961  
     axis 0 0 0   XYZ
    dof ry rz
    limits (-20.0 10.0)
           (0.0 20.0)
  end
  begin
     id 18 
     name lhumerus
     direction 1 -4.48968e-011 -3.06644e-027   
     length 5.14507   
     axis 180 -30 -90   XYZ
    dof rx ry rz
    limits (-60.0 90.0)
           (-90.0 90.0)
           (-90.0 90.0)
  end
  begin
     id 19
     name lradius
     direction 1 -4.48965e-011 9.06925e-028   
     length 3.50646   
     axis 180 -30 -90   XYZ
    dof rx
    limits (-10.0 170.0)
  end
  begin
     id 20
     name lwrist
     direction 1 -4.48957e-011 1.03922e-027   
     length 1.75323   
     axis -2.56395e-016 90 90   XYZ
    dof ry
    limits (-180.0 0.0)
 end
  begin
     id 21 
     name lhand
     direction 1 -4.48967e-011 2.08017e-027   
     length 0.629969   
     axis -1.32723e-015 90 90   XYZ
    dof rx rz
    limits (-90.0 90.0)
           (-45.0 45.0)
  end
  begin
     id 22 
     name lfingers
     direction 1 -4.49089e-011 4.20095e-027   
     length 0.507897   
     axis -2.6545e-015 90 90   XYZ
    dof rx
    limits (0.0 90.0)
  end
  begin
     id 23
     name lthumb
     direction 0.707107 -6.35001e-011 0.707107   
     length 0.729241   
     axis -90 45 5.05613e-014   XYZ
    dof rx rz
    limits (-45.0 45.0)
           (-45.0 45.0)
  end
  begin
     id 24 
     name rclavicle
     direction -0.881882 0.464123 -0.0829113   
     length 3.47515  
     axis 0 0 0   XYZ 
    dof ry rz
    limits (-10.0 20.0)
           (-20.0 0.0)
  end
  begin
     id 25 
     name rhumerus
     direction -1 -4.48961e-011 -1.55672e-027  
     length 5.232   
     axis 180 30 90   XYZ
    dof rx ry rz
    limits (-90.0 60.0)
           (-90.0 90.0)
           (-90.0 90.0)
  end
  begin
     id 26 
     name rradius
     direction -1 -4.48963e-011 6.18178e-029   
     length 3.65641   
     axis 180 30 90   XYZ
    dof rx
    limits (-10.0 170.0)
  end
  begin
     id 27 
     name rwrist
     direction -1 -4.48982e-011 1.04136e-027   
     length 1.8282   
     axis -2.56395e-016 -90 -90   XYZ
    dof ry
    limits (-180.0 0.0)
  end
  begin
     id 28
     name rhand
     direction -1 -4.48929e-011 2.07378e-027   
     length 0.656807   
     axis -1.32723e-015 -90 -90   XYZ
    dof rx rz
    limits (-90.0 90.0)
           (-45.0 45.0)
  end
  begin
     id 29
     name rfingers
     direction -1 -4.489e-011 4.13816e-027   
     length 0.529535   
     axis -2.6545e-015 -90 -90   XYZ
    dof rx
    limits (0.0 90.0)
  end
  begin
     id 30
     name rthumb
     direction -0.707107 -6.34843e-011 0.707107   
     length 0.760309   
     axis -90 -45 -5.05613e-014   XYZ
    dof rx rz
    limits (-45.0 45.0)
           (-45.0 45.0)
  end
:hierarchy
  begin
    root lhipjoint rhipjoint lowerback
    lhipjoint lfemur
    lfemur ltibia
    ltibia lfoot
    lfoot ltoes
    rhipjoint rfemur
    rfemur rtibia
    rtibia rfoot
    rfoot rtoes
    lowerback upperback
    upperback thorax
    thorax lowerneck lclavicle rclavicle
    lowerneck upperneck
    upperneck head
    lclavicle lhumerus
    lhumerus lradius
    lradius lwrist
    lwrist lhand lthumb
    lhand lfingers
    rclavicle rhumerus
    rhumerus rradius
    rradius rwrist
    rwrist rhand rthumb
    rhand rfingers
  end

#!OML:ASF H:\ManfredETheater\Project 1\Capture day 1\Session 1\subject.ASF
:FULLY-SPECIFIED
:DEGREES
32
root 4.92172 15.0275 33.0087 -159.888 -16.0285 172.24
lowerback 20.4164 -5.85794 -3.81595
upperback 1.88329 -8.71434 2.47392
thorax -8.30981 -4.15943 7.18035
lowerneck -20.5213 -1.24022 -0.974304
upperneck -4.76113 -0.238214 1.90399
head 1.96711 0.495655 0.79467
rclavicle 3.93594e-014 -4.96962e-015
rhumerus -81.559 -1.49574 -68.7871
rradius 69.72
rwrist -3.16961
rhand -28.9524 0.499216
rfingers 7.12502
rthumb -2.30577 -29.4681
lclavicle 3.93594e-014 -4.96962e-015
lhumerus -27.1163 -29.4001 94.4054
lradius 116.287
lwrist 0.917576
lhand -29.0203 -18.9774
lfingers 7.12502
lthumb -2.37136 10.9892
rfemur -77.6406 -11.1801 13.292
rtibia 59.8098
rfoot -4.77777 -9.32902
rtoes -33.5382
lfemur -9.31038 -3.8292 -18.498
ltibia 48.4797
lfoot -28.8019 -12.4136
ltoes -24.8571
33
root 4.8801 15.0508 32.526 -160.536 -15.6928 172.282
lowerback 19.835 -5.98418 -3.71301
upperback 1.89772 -8.83621 2.52848
thorax -7.96999 -4.24207 7.12395
lowerneck -20.6082 -0.995914 -0.945266
upperneck -4.16764 -0.000181322 1.54408
head 2.18426 0.564754 0.693824
rclavicle 2.24627e-014 1.19271e-015
rhumerus -82.9946 -1.22013 -68.1606
rradius 70.8891
rwrist -3.30828
rhand -28.8011 1.36777
rfingers 7.12502
rthumb -2.15964 -28.601
lclavicle 2.24627e-014 1.19271e-015
lhumerus -28.2571 -30.5396 94.7962
lradius 117.886
lwrist 0.440895
lhand -29.1962 -19.6017
lfingers 7.12502
lthumb -2.54119 10.3629
rfemur -76.8278 -10.9291 13.3105
rtibia 57.5453
rfoot -2.83087 -9.21597
rtoes -33.3933
lfemur -6.06073 -4.47762 -18.5141
ltibia 46.0829
lfoot -25.2309 -12.9751
ltoes -25.75
34
root 4.83781 15.08 32.0365 -161.159 -15.3153 172.271
lowerback 19.2296 -6.07627 -3.63294
upperback 1.91187 -8.92018 2.55965
thorax -7.62323 -4.30556 7.04092
lowerneck -20.7018 -0.779432 -0.917458
upperneck -3.58948 0.211371 1.18383
head 2.40017 0.622124 0.590935
rclavicle -2.42517e-014 2.66371e-014
rhumerus -84.1215 -1.08058 -67.5429
rradius 71.7839
rwrist -3.28856
rhand -28.7292 2.19506
rfingers 7.12502
rthumb -2.09014 -27.7744
lclavicle -2.42517e-014 2.66371e-014
lhumerus -29.4423 -31.5969 95.2743
lradius 119.137
lwrist 0.0538397
lhand -29.3023 -20.1057
lfingers 7.12502
lthumb -2.64363 9.85767
rfemur -75.9342 -10.7228 13.4288
rtibia 55.6769
rfoot -1.13331 -9.27345
rtoes -33.2922
lfemur -2.96669 -5.36513 -18.7503
ltibia 43.7732
lfoot -20.8 -13.3013
ltoes -26.2346
35
root 4.79506 15.1144 31.5415 -161.737 -14.899 172.198
lowerback 18.619 -6.13668 -3.57873
upperback 1.90839 -8.96827 2.56495
thorax -7.29799 -4.34792 6.93629
lowerneck -20.8 -0.588265 -0.887853
upperneck -3.03336 0.399373 0.827293
head 2.61191 0.669563 0.486751
rclavicle 6.04305e-014 -7.15625e-015
rhumerus -84.9187 -1.09696 -66.9293
rradius 72.4177
rwrist -3.1169
rhand -28.7389 2.93383
rfingers 7.12502
rthumb -2.09958 -27.0356
lclavicle 6.04305e-014 -7.15625e-015
lhumerus -30.6514 -32.5128 95.8301
lradius 120.011
lwrist -0.250958
lhand -29.3062 -20.5454
lfingers 7.12502
lthumb -2.64743 9.41793
rfemur -74.9953 -10.5573 13.6211
rtibia 54.2434
rfoot 0.243496 -9.39496
rtoes -33.3633
lfemur -0.119061 -6.49179 -19.2419
ltibia 41.6627
lfoot -15.6547 -13.2739
ltoes -26.1999
36
root 4.75183 15.1513 31.0435 -162.235 -14.4223 172.05
lowerback 18.0114 -6.16302 -3.5698
upperback 1.86257 -8.97779 2.54766
thorax -7.02202 -4.36428 6.82846
lowerneck -20.8849 -0.414694 -0.860423
upperneck -2.51267 0.574721 0.468805
head 2.81112 0.712252 0.380652
rclavicle 5.18828e-014 -3.06128e-014
rhumerus -85.3578 -1.25138 -66.3197
rradius 72.7982
rwrist -2.87995
rhand -28.8111 3.50572
rfingers 7.12502
rthumb -2.16923 -26.463
lclavicle 5.18828e-014 -3.06128e-014
lhumerus -31.8704 -33.2141 96.4618
lradius 120.471
lwrist -0.543519
lhand -29.2202 -20.9234
lfingers 7.12502
lthumb -2.56435 9.04089
rfemur -74.0709 -10.4085 13.8513
rtibia 53.2721
rfoot 1.28232 -9.45106
rtoes -33.4259
lfemur 2.37643 -7.8085 -20.0188
ltibia 39.8944
lfoot -10.0646 -12.9657
ltoes -25.3964
37
root 4.7084 15.1878 30.5443 -162.627 -13.8802 171.813
lowerback 17.4018 -6.15698 -3.6277
upperback 1.7669 -8.95299 2.51102
thorax -6.79559 -4.35592 6.73437
lowerneck -20.9619 -0.252583 -0.833554
upperneck -2.03863 0.746527 0.102981
head 2.99444 0.755175 0.271266
rclavicle -7.45443e-014 -1.74931e-014
rhumerus -85.4108 -1.53936 -65.7278
rradius 72.9555
rwrist -2.66716
rhand -28.9425 3.82611
rfingers 7.12502
rthumb -2.29621 -26.1413
lclavicle -7.45443e-014 -1.74931e-014
lhumerus -33.046 -33.629 97.1292
lradius 120.489
lwrist -0.886574
lhand -29.0579 -21.2643
lfingers 7.12502
lthumb -2.40763 8.70183
rfemur -73.2017 -10.2662 14.0924
rtibia 52.7786
rfoot 1.98315 -9.28893
rtoes -33.1155
lfemur 4.42169 -9.23855 -21.0761
ltibia 38.6426
lfoot -4.3236 -12.6227
ltoes -23.2076
38
root 4.66541 15.2217 30.0464 -162.9 -13.2698 171.493
lowerback 16.8129 -6.12044 -3.76002
upperback 1.60346 -8.8956 2.46521
thorax -6.64693 -4.32139 6.67516
lowerneck -21.0305 -0.0932458 -0.80704
upperneck -1.61534 0.926331 -0.279556
head 3.16001 0.803711 0.15642
rclavicle 5.70512e-014 -2.34566e-014
rhumerus -85.0733 -1.93259 -65.167
rradius 72.9135
rwrist -2.5643
rhand -29.1255 3.90588
rfingers 7.12502
rthumb -2.47291 -26.0595
lclavicle 5.70512e-014 -2.34566e-014
lhumerus -34.1484 -33.6918 97.8006
lradius 120.051
lwrist -1.3462
lhand -28.8527 -21.5698
lfingers 7.12502
lthumb -2.20946 8.3985
rfemur -72.4024 -10.1095 14.3257
rtibia 52.7557
rfoot 2.24995 -8.98873
rtoes -32.2134
lfemur 5.92131 -10.6539 -22.3515
ltibia 38.0994
lfoot 0.900813 -12.3681
ltoes -20.066
39
root 4.62317 15.2516 29.5524 -163.064 -12.5948 171.129
lowerback 16.2489 -6.05249 -3.95243
upperback 1.38286 -8.80183 2.43091
thorax -6.56599 -4.2608 6.66442
lowerneck -21.0885 0.0653654 -0.784688
upperneck -1.2685 1.11987 -0.683449
head 3.29803 0.861784 0.0357273
rclavicle 4.96962e-014 1.19271e-015
rhumerus -84.3207 -2.41784 -64.6459
rradius 72.6875
rwrist -2.61802
rhand -29.3596 3.76805
rfingers 7.12502
rthumb -2.699 -26.1946
lclavicle 4.96962e-014 1.19271e-015
lhumerus -35.1071 -33.3584 98.4223
lradius 119.148
lwrist -1.97202
lhand -28.6522 -21.8202
lfingers 7.12502
lthumb -2.0158 8.15005
rfemur -71.6575 -9.90897 14.5532
rtibia 53.1622
rfoot 2.03772 -8.59587
rtoes -30.4354
lfemur 6.80096 -11.8828 -23.7201
ltibia 38.4427
lfoot 4.99725 -12.1923
ltoes -16.5621
40
root 4.58192 15.2775 29.065 -163.144 -11.8496 170.781
lowerback 15.7284 -5.94684 -4.16848
upperback 1.11784 -8.65822 2.42602
thorax -6.554 -4.1694 6.70094
lowerneck -21.1399 0.224046 -0.762647
upperneck -1.01429 1.32829 -1.11062
head 3.40324 0.930931 -0.0919382
rclavicle -8.38871e-014 2.94201e-014
rhumerus -83.1476 -2.99112 -64.1742
rradius 72.285
rwrist -2.81139
rhand -29.6557 3.47586
rfingers 7.12502
rthumb -2.98499 -26.483
lclavicle -8.38871e-014 2.94201e-014
lhumerus -35.8604 -32.6155 98.939
lradius 117.788
lwrist -2.76902
lhand -28.5026 -21.9771
lfingers 7.12502
lthumb -1.87133 7.99446
rfemur -70.9349 -9.60996 14.7747
rtibia 53.9246
rfoot 1.40851 -8.17896
rtoes -27.7757
lfemur 7.00454 -12.7397 -25.0297
ltibia 39.8021
lfoot 7.60424 -11.9943
ltoes -13.4751
